<mxfile host="Electron" agent="Mozilla/5.0 (Windows NT 10.0; Win64; x64) AppleWebKit/537.36 (KHTML, like Gecko) draw.io/24.7.17 Chrome/128.0.6613.36 Electron/32.0.1 Safari/537.36" version="24.7.17">
  <diagram name="Page-1" id="90a13364-a465-7bf4-72fc-28e22215d7a0">
    <mxGraphModel dx="1318" dy="626" grid="1" gridSize="10" guides="1" tooltips="1" connect="1" arrows="1" fold="1" page="1" pageScale="1.5" pageWidth="1169" pageHeight="826" background="none" math="0" shadow="0">
      <root>
        <mxCell id="0" style=";html=1;" />
        <mxCell id="1" style=";html=1;" parent="0" />
        <mxCell id="4EpXQEZX7PHPwiA0SEZN-1" value="" style="whiteSpace=wrap;html=1;aspect=fixed;" vertex="1" parent="1">
          <mxGeometry x="500" y="574" width="490" height="490" as="geometry" />
        </mxCell>
        <mxCell id="4EpXQEZX7PHPwiA0SEZN-3" value="Energy Data&amp;nbsp;&lt;br&gt;Acquisition" style="rounded=1;whiteSpace=wrap;html=1;fontStyle=1" vertex="1" parent="1">
          <mxGeometry x="722" y="598" width="120" height="60" as="geometry" />
        </mxCell>
        <mxCell id="4EpXQEZX7PHPwiA0SEZN-4" value="DB" style="shape=cylinder3;whiteSpace=wrap;html=1;boundedLbl=1;backgroundOutline=1;size=15;" vertex="1" parent="1">
          <mxGeometry x="930" y="773" width="50" height="70" as="geometry" />
        </mxCell>
        <mxCell id="4EpXQEZX7PHPwiA0SEZN-5" value="&lt;b&gt;Data Transformation&lt;/b&gt;" style="rounded=1;whiteSpace=wrap;html=1;" vertex="1" parent="1">
          <mxGeometry x="552" y="668" width="120" height="60" as="geometry" />
        </mxCell>
        <mxCell id="4EpXQEZX7PHPwiA0SEZN-6" value="&lt;b&gt;Scenerio Analysis&lt;/b&gt;" style="rounded=1;whiteSpace=wrap;html=1;" vertex="1" parent="1">
          <mxGeometry x="722" y="718" width="120" height="60" as="geometry" />
        </mxCell>
        <mxCell id="4EpXQEZX7PHPwiA0SEZN-7" value="&lt;b&gt;Future Forecasting&lt;/b&gt;" style="rounded=1;whiteSpace=wrap;html=1;" vertex="1" parent="1">
          <mxGeometry x="552" y="773" width="120" height="60" as="geometry" />
        </mxCell>
        <mxCell id="4EpXQEZX7PHPwiA0SEZN-8" style="edgeStyle=orthogonalEdgeStyle;rounded=0;orthogonalLoop=1;jettySize=auto;html=1;exitX=0.5;exitY=1;exitDx=0;exitDy=0;" edge="1" parent="1" source="4EpXQEZX7PHPwiA0SEZN-6" target="4EpXQEZX7PHPwiA0SEZN-6">
          <mxGeometry relative="1" as="geometry" />
        </mxCell>
        <mxCell id="4EpXQEZX7PHPwiA0SEZN-9" value="&lt;b&gt;Personalized Recommendations&lt;/b&gt;" style="rounded=1;whiteSpace=wrap;html=1;" vertex="1" parent="1">
          <mxGeometry x="722" y="830" width="120" height="60" as="geometry" />
        </mxCell>
        <mxCell id="4EpXQEZX7PHPwiA0SEZN-10" value="&lt;b&gt;Visualization&lt;/b&gt;" style="rounded=1;whiteSpace=wrap;html=1;" vertex="1" parent="1">
          <mxGeometry x="552" y="878" width="120" height="60" as="geometry" />
        </mxCell>
        <mxCell id="4EpXQEZX7PHPwiA0SEZN-11" value="&lt;b&gt;Reporting&lt;/b&gt;" style="rounded=1;whiteSpace=wrap;html=1;" vertex="1" parent="1">
          <mxGeometry x="722" y="938" width="120" height="60" as="geometry" />
        </mxCell>
        <mxCell id="4EpXQEZX7PHPwiA0SEZN-14" value="" style="endArrow=none;html=1;rounded=0;entryX=0.5;entryY=0;entryDx=0;entryDy=0;exitX=0;exitY=0.5;exitDx=0;exitDy=0;" edge="1" parent="1" source="4EpXQEZX7PHPwiA0SEZN-3" target="4EpXQEZX7PHPwiA0SEZN-5">
          <mxGeometry width="50" height="50" relative="1" as="geometry">
            <mxPoint x="672" y="678" as="sourcePoint" />
            <mxPoint x="672" y="668" as="targetPoint" />
          </mxGeometry>
        </mxCell>
        <mxCell id="4EpXQEZX7PHPwiA0SEZN-16" value="" style="endArrow=none;html=1;rounded=0;exitX=0;exitY=0.5;exitDx=0;exitDy=0;" edge="1" parent="1" source="4EpXQEZX7PHPwiA0SEZN-6" target="4EpXQEZX7PHPwiA0SEZN-5">
          <mxGeometry width="50" height="50" relative="1" as="geometry">
            <mxPoint x="702" y="828" as="sourcePoint" />
            <mxPoint x="752" y="778" as="targetPoint" />
          </mxGeometry>
        </mxCell>
        <mxCell id="4EpXQEZX7PHPwiA0SEZN-17" value="" style="endArrow=none;html=1;rounded=0;entryX=0.25;entryY=1;entryDx=0;entryDy=0;exitX=1;exitY=0.25;exitDx=0;exitDy=0;" edge="1" parent="1" source="4EpXQEZX7PHPwiA0SEZN-7">
          <mxGeometry width="50" height="50" relative="1" as="geometry">
            <mxPoint x="642" y="810" as="sourcePoint" />
            <mxPoint x="722" y="760" as="targetPoint" />
          </mxGeometry>
        </mxCell>
        <mxCell id="4EpXQEZX7PHPwiA0SEZN-18" value="" style="endArrow=none;html=1;rounded=0;exitX=0;exitY=0.5;exitDx=0;exitDy=0;" edge="1" parent="1" source="4EpXQEZX7PHPwiA0SEZN-9">
          <mxGeometry width="50" height="50" relative="1" as="geometry">
            <mxPoint x="722" y="863" as="sourcePoint" />
            <mxPoint x="672" y="827" as="targetPoint" />
          </mxGeometry>
        </mxCell>
        <mxCell id="4EpXQEZX7PHPwiA0SEZN-21" value="" style="endArrow=none;html=1;rounded=0;exitX=0.5;exitY=0;exitDx=0;exitDy=0;entryX=0.5;entryY=1;entryDx=0;entryDy=0;" edge="1" parent="1" source="4EpXQEZX7PHPwiA0SEZN-10" target="4EpXQEZX7PHPwiA0SEZN-7">
          <mxGeometry width="50" height="50" relative="1" as="geometry">
            <mxPoint x="702" y="828" as="sourcePoint" />
            <mxPoint x="597" y="828" as="targetPoint" />
          </mxGeometry>
        </mxCell>
        <mxCell id="4EpXQEZX7PHPwiA0SEZN-25" value="&lt;font style=&quot;font-size: 18px;&quot;&gt;IESA&lt;/font&gt;" style="text;html=1;align=center;verticalAlign=middle;whiteSpace=wrap;rounded=0;" vertex="1" parent="1">
          <mxGeometry x="722" y="1020" width="60" height="30" as="geometry" />
        </mxCell>
        <mxCell id="4EpXQEZX7PHPwiA0SEZN-30" value="" style="endArrow=none;html=1;rounded=0;exitX=1.008;exitY=0.65;exitDx=0;exitDy=0;exitPerimeter=0;entryX=1;entryY=0.5;entryDx=0;entryDy=0;" edge="1" parent="1">
          <mxGeometry width="50" height="50" relative="1" as="geometry">
            <mxPoint x="889.96" y="975" as="sourcePoint" />
            <mxPoint x="889" y="626" as="targetPoint" />
            <Array as="points" />
          </mxGeometry>
        </mxCell>
        <mxCell id="4EpXQEZX7PHPwiA0SEZN-31" value="" style="endArrow=none;html=1;rounded=0;entryX=0.75;entryY=1;entryDx=0;entryDy=0;exitX=0;exitY=0.5;exitDx=0;exitDy=0;" edge="1" parent="1" source="4EpXQEZX7PHPwiA0SEZN-11" target="4EpXQEZX7PHPwiA0SEZN-10">
          <mxGeometry width="50" height="50" relative="1" as="geometry">
            <mxPoint x="650" y="810" as="sourcePoint" />
            <mxPoint x="700" y="760" as="targetPoint" />
          </mxGeometry>
        </mxCell>
        <mxCell id="4EpXQEZX7PHPwiA0SEZN-32" value="" style="endArrow=none;html=1;rounded=0;exitX=1;exitY=0.65;exitDx=0;exitDy=0;exitPerimeter=0;" edge="1" parent="1" source="4EpXQEZX7PHPwiA0SEZN-7">
          <mxGeometry width="50" height="50" relative="1" as="geometry">
            <mxPoint x="650" y="810" as="sourcePoint" />
            <mxPoint x="890" y="810" as="targetPoint" />
          </mxGeometry>
        </mxCell>
        <mxCell id="4EpXQEZX7PHPwiA0SEZN-34" value="" style="endArrow=none;html=1;rounded=0;" edge="1" parent="1">
          <mxGeometry width="50" height="50" relative="1" as="geometry">
            <mxPoint x="850" y="750" as="sourcePoint" />
            <mxPoint x="890" y="750" as="targetPoint" />
            <Array as="points">
              <mxPoint x="840" y="750" />
              <mxPoint x="850" y="750" />
            </Array>
          </mxGeometry>
        </mxCell>
        <mxCell id="4EpXQEZX7PHPwiA0SEZN-35" value="" style="endArrow=none;html=1;rounded=0;exitX=1;exitY=0.65;exitDx=0;exitDy=0;exitPerimeter=0;" edge="1" parent="1">
          <mxGeometry width="50" height="50" relative="1" as="geometry">
            <mxPoint x="672" y="694" as="sourcePoint" />
            <mxPoint x="890" y="692" as="targetPoint" />
          </mxGeometry>
        </mxCell>
        <mxCell id="4EpXQEZX7PHPwiA0SEZN-36" value="" style="endArrow=none;html=1;rounded=0;exitX=1;exitY=0.65;exitDx=0;exitDy=0;exitPerimeter=0;" edge="1" parent="1">
          <mxGeometry width="50" height="50" relative="1" as="geometry">
            <mxPoint x="673" y="910" as="sourcePoint" />
            <mxPoint x="891" y="908" as="targetPoint" />
          </mxGeometry>
        </mxCell>
        <mxCell id="4EpXQEZX7PHPwiA0SEZN-37" value="" style="endArrow=none;html=1;rounded=0;" edge="1" parent="1">
          <mxGeometry width="50" height="50" relative="1" as="geometry">
            <mxPoint x="853" y="627" as="sourcePoint" />
            <mxPoint x="890" y="627" as="targetPoint" />
            <Array as="points">
              <mxPoint x="843" y="627" />
              <mxPoint x="853" y="627" />
            </Array>
          </mxGeometry>
        </mxCell>
        <mxCell id="4EpXQEZX7PHPwiA0SEZN-38" value="" style="endArrow=none;html=1;rounded=0;" edge="1" parent="1">
          <mxGeometry width="50" height="50" relative="1" as="geometry">
            <mxPoint x="854" y="973" as="sourcePoint" />
            <mxPoint x="891" y="973" as="targetPoint" />
            <Array as="points">
              <mxPoint x="844" y="973" />
              <mxPoint x="854" y="973" />
            </Array>
          </mxGeometry>
        </mxCell>
        <mxCell id="4EpXQEZX7PHPwiA0SEZN-39" value="" style="endArrow=none;html=1;rounded=0;" edge="1" parent="1">
          <mxGeometry width="50" height="50" relative="1" as="geometry">
            <mxPoint x="893" y="810" as="sourcePoint" />
            <mxPoint x="933" y="810" as="targetPoint" />
            <Array as="points">
              <mxPoint x="883" y="810" />
              <mxPoint x="893" y="810" />
            </Array>
          </mxGeometry>
        </mxCell>
      </root>
    </mxGraphModel>
  </diagram>
</mxfile>
